<svg id="Layer_2" data-name="Layer 2" xmlns="http://www.w3.org/2000/svg" xmlns:xlink="http://www.w3.org/1999/xlink" viewBox="0 0 1080 1080"><defs><clipPath id="clip-path"><path d="M743.13,893.75c3.78,4.14,8.28,7.55,12.77,10.96a410.356,410.356,0,0,1-199.4,55.22c5.92-1.14,11.32-3.55,14.06-8.71,2.86-5.39,1.63-12.15-1.24-17.53s-7.19-9.82-10.84-14.7c-14.32-19.14-17.91-44.02-20.41-67.79-.51-4.91-1.19-10.24-4.69-13.72a11.592,11.592,0,0,0-2.39-1.83q6.4-9.1,13.44-17.75c6.25-7.66,13.86-15.55,23.71-16.38,6.61-.57,13,2.21,19.3,4.3a97.79,97.79,0,0,0,32.82,4.88c.43.86.87,1.72,1.32,2.57a30.89,30.89,0,0,0,4.37,6.81c2.42,2.68,5.62,4.49,8.78,6.24,6.59,3.67,15.08,7.22,21.17,2.77a20.165,20.165,0,0,0,4.85-5.98q3.72-6.03,7.44-12.07a30.294,30.294,0,0,0,2.18-3.94,55.98,55.98,0,0,1,42.98,23.32C726.81,849.66,727.31,876.42,743.13,893.75Z" fill="#759eb8"/></clipPath><clipPath id="clip-path-2"><path d="M179.09,522.51a132.056,132.056,0,0,0,16.18,9.79c1.26.67,2.53,1.34,3.8,2,35.73,18.63,72.12,36.07,109.41,51.34q36.45,14.925,73.94,27.15c11.12,3.64,22.69,7.34,32.24,13.85q.03,14.88.09,29.79c.03,14.12.06,28.38-3.1,42.15-3.26,14.15-9.84,27.51-11.64,41.92-3.92,31.29,14.97,60.79,18.65,92.11,1.02,8.7.86,17.48.69,26.23q-.435,22.9-.86,45.79c-.05,2.91-.07,5.96,1.34,8.5,2.53,4.55,8.49,5.67,13.69,6.05a173.7,173.7,0,0,0,31.76-.57,5.964,5.964,0,0,0,3.32-1.07,5.644,5.644,0,0,0,1.52-3.23c2.84-13.51-.95-27.4-3.14-41.04-1.4-8.71-1.96-18.08.07-26.52.05.69.12,1.39.19,2.08,3.09,28.59,26.07,52.89,25.89,81.64-.05,8.91-1.62,19.6,3.37,26.12-204.74-26.41-363-203.33-363-417.64a428.652,428.652,0,0,1,3.85-57.46q10.815,11.2,21.62,22.41C165.31,510.48,171.71,517.1,179.09,522.51Z" fill="#759eb8"/></clipPath><clipPath id="clip-path-3"><path d="M301.08,488.49c-.16-1.07-.31-2.15-.47-3.22A22.5,22.5,0,0,0,301.08,488.49Zm81.46,35.98a148.415,148.415,0,0,0,13.38,16.44c-11.54,3.11-23.27,4.88-35.16,3.82-1.52-.14-3.04-.31-4.55-.54a45.361,45.361,0,0,0-5.55-10.68c-7.04-9.68-18.55-14.8-28.79-21.01-9.3-5.62-18.51-13.61-20.78-23.95q3.06,21.1,6.11,42.2c.36,2.44.72,4.9,1.23,7.31-22.75-.14-45.88,1.68-64.34-10.65l-.74.25c-4.28-12.66-4.86-26.53-9.87-38.98-3.11-7.75-7.98-15.13-8.17-23.47-3.59,15.68-6.39,39.88-4.54,58.09-6.09-4.86-11.6-10.53-17.38-15.82a201.717,201.717,0,0,0-50.89-34.03c3.44,7.22,9.58,12.73,15.57,18.03,9.88,8.74,19.78,17.51,29.93,25.94-22.45-8.41-39.95-26.55-60.06-40.1C167.4,274,340.5,117.9,549.65,117.9c229.83,0,416.15,188.51,416.15,421.05a422.069,422.069,0,0,1-154,327c-6.62-10.82-13.72-21.32-22.34-30.57-5.15-5.52-10.8-10.56-15.61-16.37-16.83-20.3-22.5-48.87-41.3-67.06-.59-6.32-4.21-12.59-6.9-18.61-4.38-9.77-6.47-20.37-8.53-30.88q-2.715-13.935-5.45-27.89,8.88-10.41,17.78-20.83c4.58-5.36,9.21-10.79,12.38-17.09s4.81-13.64,3.05-20.48c-7.69,5.1-16.93,7.42-24.75,12.32a51.408,51.408,0,0,0-4.84,3.47c-2.22,1.77-4.35,3.67-6.45,5.59A67.853,67.853,0,0,0,703,621.26c.12-.06.25-.12.37-.18a26.29,26.29,0,0,0,2.69-1.53c6.46-4.16,11.18-10.77,14.67-17.68,3.96-7.84,6.6-16.27,10.4-24.19,13.03-27.07,38.35-45.67,58.92-67.57-2.27-.12-4.53-.17-6.79-.17-20.49,0-40.77,4.62-60.77,9.57-1.78.44-3.56.89-5.33,1.33a213.559,213.559,0,0,0-21.4,6.17,105.962,105.962,0,0,0-36.6,22.89Q646.635,536.445,634.1,523c-2.1-2.24-4.21-4.51-6.38-6.73,9.04-14.63,26.83-23.42,35.58-38.64,7.75-13.51,7.32-30.04,11.4-45.06,2.64-9.76,7.2-18.88,11.73-27.93q11.43-22.845,22.88-45.7a1222.516,1222.516,0,0,0-110.23,98.74,117.7,117.7,0,0,0-6.07-25.45c-9.91-26.25-32.96-47.94-34.59-75.94-2.13,16.77,3.74,33.37,6.65,50.02,1.9,10.86,2.54,21.91,3.18,32.92q1.1,19.17,2.2,38.32c.29,5.04.54,10.23.38,15.34a224.211,224.211,0,0,0-22.9,1.52c-3.23-17.64-13.05-34.24-24.8-48.12-15.6-18.43-34.76-33.55-50.67-51.7-8.22-9.37-15.73-19.95-18.19-32.18-4.37,19.95,2.08,40.62,10.08,59.41s17.73,37.29,20.37,57.55c1.04,7.94,1,16.23,4.32,23.52a32.682,32.682,0,0,0,2.19,3.98c-11.24,3.44-22.4,7.32-33.46,11.41q-15.06-18.855-30.11-37.72c-4.49-5.63-9.14-11.39-15.36-15-6.72-3.91-14.66-4.94-22.28-6.44a169.688,169.688,0,0,1-42.56-14.37c-5.7-2.8-11.55-6.3-15.4-11.16-1.19-2.2-2.37-4.41-3.57-6.61a20.446,20.446,0,0,0,3.57,6.61q16.98,31.44,33.96,62.9C371.16,506.02,376.33,515.58,382.54,524.47Z" fill="#759eb8"/></clipPath></defs><path d="M569.55,687.69c.45-.14.65-.66.77-1.11,1.51-5.83-1.05-11.87-3.54-17.34a17.277,17.277,0,0,0-3.4-5.5,6.087,6.087,0,0,0-5.29-1.79l-.23-1.04c.1-.43.2-.85.33-1.27a29,29,0,0,1,17.51,1.85c2.7,1.21,5.34,2.85,8.29,2.92-.51-.85-1.03-1.71-1.55-2.57a31.047,31.047,0,0,1,3.58,4.37c1.95,2.86,3.45,6.06,5.76,8.63,2.4,2.69,5.62,4.62,7.73,7.54,2.13,2.91,2.72,7.54-.11,9.78a9.614,9.614,0,0,1-4.11,1.56,38.853,38.853,0,0,1-10.43,1.27c-3.18-.18-6.3-1.13-9.43-1.7h-.01q-4.635-3.42-9.26-6.84a15.262,15.262,0,0,1,2.29.97A1.572,1.572,0,0,0,569.55,687.69Z" fill="#fe5f55"/><path d="M588.3,649.1c.63,1.05-.81,2.21-2.02,2.19-1.15-.02-2.32-.49-3.39-.18a4.69,4.69,0,0,1,3.64-2.63A1.8,1.8,0,0,1,588.3,649.1Z" fill="#6c9a8b"/><path d="M642.65,682.25A38.077,38.077,0,0,1,641,693.08a5.405,5.405,0,0,1-.96,2.14c-1.65,1.9-5.09.51-5.98-1.84a7.757,7.757,0,0,1-.14-4.48,21.122,21.122,0,0,1,2.25-9.62,4.223,4.223,0,0,1,2.12-2.29C640.8,676.09,642.59,679.58,642.65,682.25Z" fill="#6c9a8b"/><path d="M575.43,693.29c.36.27.74.54,1.1.81-2.6.82-4.81,2.57-7.22,3.87s-5.36,2.14-7.86,1.03a6.336,6.336,0,0,1-3.13-3.18,18.623,18.623,0,0,1-1.4-7.78,2.625,2.625,0,0,1,.36-1.64,2.435,2.435,0,0,1,1.76-.74,16.346,16.346,0,0,1,5.49.33,13.148,13.148,0,0,1,1.63.46q4.635,3.42,9.26,6.84Z" fill="#7c99b4"/><path d="M570.91,647.1a4.535,4.535,0,0,1,2.4.71,8.056,8.056,0,0,1,2.39,2.87c2.26,3.73,4.5,7.44,6.74,11.16.52.86,1.04,1.72,1.55,2.57-2.95-.07-5.59-1.71-8.29-2.92a29,29,0,0,0-17.51-1.85,20.147,20.147,0,0,1,7.45-10.59A9.163,9.163,0,0,1,570.91,647.1Z" fill="#7c99b4"/><path d="M665.52,710.08a1.213,1.213,0,0,0-.1.14,9.967,9.967,0,0,0,1.99,2.95c.29.33.58.65.89.97v.01c-1.3,7.24-3.18,14.56-8.29,19.71a.812.812,0,0,1-.1.09c-5.35,5.32-13.35,7.26-20.88,6.81-7.59-.45-14.85-3.02-22.01-5.56q-12.375-4.41-24.76-8.81a32.1,32.1,0,0,0-7.59-5.3q-7.59-4.245-15.17-8.51c-3.27-1.83-6.63-3.74-9.01-6.65-2.29-2.79-3.49-6.77-2.17-10.11a6.336,6.336,0,0,0,3.13,3.18c2.5,1.11,5.45.27,7.86-1.03s4.62-3.05,7.22-3.87c-.36-.27-.74-.54-1.1-.81,3.13.57,6.25,1.52,9.43,1.7a38.853,38.853,0,0,0,10.43-1.27,9.614,9.614,0,0,0,4.11-1.56c2.83-2.24,2.24-6.87.11-9.78-2.11-2.92-5.33-4.85-7.73-7.54-2.31-2.57-3.81-5.77-5.76-8.63a31.047,31.047,0,0,0-3.58-4.37c-2.24-3.72-4.48-7.43-6.74-11.16a8.056,8.056,0,0,0-2.39-2.87,4.535,4.535,0,0,0-2.4-.71c4.02-3.79,10.54-4.68,16.08-3.34,6.57,1.6,12.22,5.61,18.1,8.92,2.28,1.28,4.62,2.47,7,3.55,1.58.72,3.18,1.4,4.81,2.02q3.015,1.17,6.1,2.12,2.79.87,5.64,1.55.51.135,1.02.24c.83.2,1.67.37,2.51.55,5.41,1.15,10.93,2.21,15.48,5.3,5.19,3.52,8.34,9.18,10.65,15.11.53,1.36,1.02,2.74,1.47,4.11q2.13,6.375,3.69,12.89c.65,2.67,1.22,5.34,1.72,8.03v.01C665.3,708.8,665.41,709.44,665.52,710.08Zm-24.52-17a38.077,38.077,0,0,0,1.65-10.83c-.06-2.67-1.85-6.16-4.36-5.26a4.223,4.223,0,0,0-2.12,2.29,21.122,21.122,0,0,0-2.25,9.62,7.757,7.757,0,0,0,.14,4.48c.89,2.35,4.33,3.74,5.98,1.84A5.405,5.405,0,0,0,641,693.08Zm-54.72-41.79c1.21.02,2.65-1.14,2.02-2.19a1.8,1.8,0,0,0-1.77-.62,4.69,4.69,0,0,0-3.64,2.63C583.96,650.8,585.13,651.27,586.28,651.29Z" fill="#ffcf99"/><path d="M620.14,644.59a21.377,21.377,0,0,1,8.5,17.33q-2.85-.675-5.64-1.55Q621.575,652.48,620.14,644.59Z" fill="#7e6b8f"/><path d="M678.84,668.33c2.47,6.38.58,13.79-3.2,19.49-3.21,4.83-7.63,8.67-12.18,12.3q-1.56-6.51-3.69-12.89c-.45-1.37-.94-2.75-1.47-4.11a57.485,57.485,0,0,1,20.47-14.76h.01A.333.333,0,0,0,678.84,668.33Z" fill="#7e6b8f"/><path d="M695.69,682.92q-1.185,6.57-2.38,13.15c-.67,3.63-1.32,7.26-1.98,10.89-.56,3.11-1.31,6.48-3.02,9.02-.03-1.16-.06-2.32-.09-3.47a70.67,70.67,0,0,1-5.23,9.5,4.2,4.2,0,0,1-2.09,1.97c-1.34.41-2.69-.51-3.77-1.41a91.125,91.125,0,0,1-8.83-8.42v-.01c-.31-.32-.6-.64-.89-.97a9.967,9.967,0,0,1-1.99-2.95,1.213,1.213,0,0,1,.1-.14,113.229,113.229,0,0,1,20.84-21.56,35.124,35.124,0,0,1,8.12-5.14C694.87,683.21,695.28,683.06,695.69,682.92Z" fill="#7e6b8f"/><path d="M744.88,616.17c1.76,6.84.13,14.18-3.05,20.48s-7.8,11.73-12.38,17.09q-8.9,10.41-17.78,20.83-9.18,10.755-18.36,21.5,1.185-6.585,2.38-13.15c-.41.14-.82.29-1.21.46a15.832,15.832,0,0,1,3.76-6.57c2.48-2.72,5.51-4.88,8.06-7.54,8.29-8.66,10.52-21.59,17.96-30.97,2-2.49,4.35-4.75,5.85-7.57-4.92.64-9.86,1.06-14.82,1.23a51.408,51.408,0,0,1,4.84-3.47C727.95,623.59,737.19,621.27,744.88,616.17Z" fill="#7e6b8f"/><path d="M783.26,509.94c2.26,0,4.52.05,6.79.17-20.57,21.9-45.89,40.5-58.92,67.57-3.8,7.92-6.44,16.35-10.4,24.19-3.49,6.91-8.21,13.52-14.67,17.68q5.565-14.955,11.12-29.91c4.3-11.53,8.67-23.22,15.81-33.24,2.77-3.89,5.94-7.51,8.44-11.58,5.7-9.25,8.02-20.89,16.24-27.98a63.829,63.829,0,0,1-35.18,2.67C742.49,514.56,762.77,509.94,783.26,509.94Z" fill="#7e6b8f"/><path d="M609.65,604.08c3.96,17.99,8.33,35.9,7.25,54.17-1.63-.62-3.23-1.3-4.81-2.02a207.3,207.3,0,0,0-4.84-51.62Z" fill="#7e6b8f"/><path d="M603.93,565.46c.3,13.01,2.9,25.84,5.72,38.62l-2.4.53c-.22-.99-.45-1.97-.68-2.95a88.777,88.777,0,0,0-5.7-17.3c-3-6.36-7.22-12.15-9.6-18.77-2.62-7.29-2.86-15.13-2.59-22.93v-.01c.06-1.97.16-3.94.26-5.9a111.361,111.361,0,0,1,11.02,11.55q3.315,4.02,6.26,8.34C604.1,558.83,603.86,562.35,603.93,565.46Z" fill="#7e6b8f"/><path d="M743.13,893.75c3.78,4.14,8.28,7.55,12.77,10.96a410.356,410.356,0,0,1-199.4,55.22c5.92-1.14,11.32-3.55,14.06-8.71,2.86-5.39,1.63-12.15-1.24-17.53s-7.19-9.82-10.84-14.7c-14.32-19.14-17.91-44.02-20.41-67.79-.51-4.91-1.19-10.24-4.69-13.72a11.592,11.592,0,0,0-2.39-1.83q6.4-9.1,13.44-17.75c6.25-7.66,13.86-15.55,23.71-16.38,6.61-.57,13,2.21,19.3,4.3a97.79,97.79,0,0,0,32.82,4.88c.43.86.87,1.72,1.32,2.57a30.89,30.89,0,0,0,4.37,6.81c2.42,2.68,5.62,4.49,8.78,6.24,6.59,3.67,15.08,7.22,21.17,2.77a20.165,20.165,0,0,0,4.85-5.98q3.72-6.03,7.44-12.07a30.294,30.294,0,0,0,2.18-3.94,55.98,55.98,0,0,1,42.98,23.32C726.81,849.66,727.31,876.42,743.13,893.75Z" fill="#759eb8"/><g clip-path="url(#clip-path)"><path d="M692.8,767.708c-38.442,19.868-57.408,65.1-46.983,106.588,5.945,23.657,17.087,45.34,18.979,70a149.438,149.438,0,0,1-8.907,62.877,143.8,143.8,0,0,1-41.183,59.463c-4.891,4.2,2.21,11.245,7.072,7.071,32.139-27.588,51.192-68.738,53.263-110.886,1.114-22.664-3.638-43.974-11.173-65.216-4.339-12.232-9.061-24.616-10.674-37.574a79.612,79.612,0,0,1,2.375-30.959,84.712,84.712,0,0,1,42.278-52.727c5.72-2.956.668-11.588-5.047-8.635Z" fill="#bad0db"/></g><path d="M179.09,522.51a132.056,132.056,0,0,0,16.18,9.79c1.26.67,2.53,1.34,3.8,2,35.73,18.63,72.12,36.07,109.41,51.34q36.45,14.925,73.94,27.15c11.12,3.64,22.69,7.34,32.24,13.85q.03,14.88.09,29.79c.03,14.12.06,28.38-3.1,42.15-3.26,14.15-9.84,27.51-11.64,41.92-3.92,31.29,14.97,60.79,18.65,92.11,1.02,8.7.86,17.48.69,26.23q-.435,22.9-.86,45.79c-.05,2.91-.07,5.96,1.34,8.5,2.53,4.55,8.49,5.67,13.69,6.05a173.7,173.7,0,0,0,31.76-.57,5.964,5.964,0,0,0,3.32-1.07,5.644,5.644,0,0,0,1.52-3.23c2.84-13.51-.95-27.4-3.14-41.04-1.4-8.71-1.96-18.08.07-26.52.05.69.12,1.39.19,2.08,3.09,28.59,26.07,52.89,25.89,81.64-.05,8.91-1.62,19.6,3.37,26.12-204.74-26.41-363-203.33-363-417.64a428.652,428.652,0,0,1,3.85-57.46q10.815,11.2,21.62,22.41C165.31,510.48,171.71,517.1,179.09,522.51Z" fill="#759eb8"/><g clip-path="url(#clip-path-2)"><path d="M199.762,508.628c-21.208,6.776-27.679,32.173-22.6,51.872,3.338,12.944,11.224,24.318,18.788,35.113,8.173,11.664,15.949,23.351,20.777,36.853,19.847,55.506-.494,115.05-20,167.49-12.127,32.6-24.611,65.319-29.7,99.9-.926,6.3,8.708,9.013,9.643,2.659,8.658-58.852,38.893-111.353,51.763-169.067,5.848-26.224,8.319-53.476,3.953-80.122a133.787,133.787,0,0,0-11.545-36.718c-6.076-12.539-14.773-23.392-22.376-34.989-7.339-11.194-13.617-23.2-12.9-36.936.571-10.986,5.662-22.839,16.862-26.417,6.107-1.951,3.5-11.609-2.658-9.643Z" fill="#bad7e5"/><path d="M419.3,612.718c-23.968,46.347-48.762,95.06-51.47,148.177-1.385,27.158,4.989,53.4,9.983,79.882,4.728,25.067,6.692,50.075-.377,74.9A131.648,131.648,0,0,1,335.267,980.5c-4.942,4.133,2.164,11.174,7.071,7.071,37.571-31.413,54.552-79.863,48.555-127.956-3.376-27.071-11.6-53.465-13.053-80.783-1.412-26.514,3.826-52.718,12.309-77.739,9.815-28.944,23.78-56.242,37.788-83.327,2.952-5.708-5.675-10.772-8.635-5.048Z" fill="#bad7e5"/><path d="M667.477,758.465c-9.37,15.863-18.424,32.061-24.489,49.523a120.337,120.337,0,0,0-5.814,55.144c4.776,37.315,23.309,71.1,28.8,108.243,2.907,19.674,1.84,40.258-7.741,58.049-3.051,5.666,5.579,10.722,8.635,5.047,38-70.559-36.252-141.528-17.309-213.768,5.371-20.482,15.86-39.087,26.553-57.191,3.281-5.554-5.36-10.591-8.634-5.047Z" fill="#bad7e5"/></g><path d="M688.31,715.98c.49,21.51-.45,43.69-11.72,61.72-1.85,2.95-3.99,5.89-5.31,9.05-5.12-17.23-8.32-35.04-11.37-52.8a.812.812,0,0,0,.1-.09c5.11-5.15,6.99-12.47,8.29-19.71a91.125,91.125,0,0,0,8.83,8.42c1.08.9,2.43,1.82,3.77,1.41a4.2,4.2,0,0,0,2.09-1.97,70.67,70.67,0,0,0,5.23-9.5C688.25,713.66,688.28,714.82,688.31,715.98Z" fill="#111d4a"/><path d="M819.81,879.43c4.82,8.24,9.82,17.28,8.55,26.73a132.61,132.61,0,0,1-48.06,16.82c-1.86.26-3.86.47-5.53-.39a10.976,10.976,0,0,1-3.46-3.64c-4.14-5.69-9.76-9.96-15.4-14.24h-.01c-4.49-3.41-8.99-6.82-12.77-10.96-15.82-17.33-16.32-44.09-29.78-63.33a55.98,55.98,0,0,0-42.98-23.32,11.632,11.632,0,0,0,.86-2.76c.71-4.13-1.3-8.27-1.14-12.45a14.89,14.89,0,0,1,1.19-5.14c1.32-3.16,3.46-6.1,5.31-9.05,11.27-18.03,12.21-40.21,11.72-61.72,1.71-2.54,2.46-5.91,3.02-9.02.66-3.63,1.31-7.26,1.98-10.89q9.18-10.74,18.36-21.5,2.715,13.95,5.45,27.89c2.06,10.51,4.15,21.11,8.53,30.88,2.69,6.02,6.31,12.29,6.9,18.61,18.8,18.19,24.47,46.76,41.3,67.06,4.81,5.81,10.46,10.85,15.61,16.37,8.62,9.25,15.72,19.75,22.34,30.57C814.53,870.41,817.18,874.93,819.81,879.43Z" fill="#ffcf99"/><path d="M670.09,791.89c-.16,4.18,1.85,8.32,1.14,12.45a11.632,11.632,0,0,1-.86,2.76,30.294,30.294,0,0,1-2.18,3.94q-3.72,6.045-7.44,12.07a20.165,20.165,0,0,1-4.85,5.98c-6.09,4.45-14.58.9-21.17-2.77-3.16-1.75-6.36-3.56-8.78-6.24a30.89,30.89,0,0,1-4.37-6.81c-.45-.85-.89-1.71-1.32-2.57a238.493,238.493,0,0,1-22.41-69.15c-.09-.53-.18-1.06-.26-1.59-.73-4.48-1.63-9.05-4.44-12.56-.28-.35-.58-.69-.89-1.01q12.375,4.4,24.76,8.81c7.16,2.54,14.42,5.11,22.01,5.56,7.53.45,15.53-1.49,20.88-6.81,3.05,17.76,6.25,35.57,11.37,52.8A14.89,14.89,0,0,0,670.09,791.89Z" fill="#ffcf99"/><path d="M222.8,536.7c6.25,1.12,12.7,1.46,18.59,3.81,5.71,2.27,10.56,6.31,16.17,8.83,17.87,8.03,39.08-.68,58.17,3.48a15.594,15.594,0,0,0,6.36,3.74c1.25-.18,2.51-.28,3.79-.35,8.13,3.47,15.97,7.92,24.72,8.34,6.52.31,12.89-1.66,19.29-2.91,14.68-2.87,29.8-1.96,44.73-2.88a120.951,120.951,0,0,0,14.5-1.73,57.1,57.1,0,0,0-13.36,27.3c-1.2,6.72-1.19,13.58-1.16,20.4q.03,10.95.06,21.91c-9.55-6.51-21.12-10.21-32.24-13.85q-37.44-12.255-73.94-27.15c-37.29-15.27-73.68-32.71-109.41-51.34-1.27-.66-2.54-1.33-3.8-2a22.3,22.3,0,0,1,4.73-.41c7.17.17,13.98,3.01,21,4.47.59.12,1.19.24,1.79.34Z" fill="#ffcf99"/><path d="M463.6,622.3a118.045,118.045,0,0,1,.95-23.42c-.19-.27-.39-.54-.56-.81-2.04-3.16-3.35-6.74-5.57-9.77-3.22-4.38-8.13-7.26-13.27-9.03-5.06-1.75-11.12-2.36-15.37.91a13.428,13.428,0,0,0-4.06,5.64,17.475,17.475,0,0,0-.19,13.14,14.114,14.114,0,0,0,9.81,8.47c4.07.87,8.48-.26,12.35,1.26,2.46.97,4.4,2.92,6.29,4.77C457.09,616.51,460.31,619.46,463.6,622.3Zm3.45,224.45c-2.03,8.44-1.47,17.81-.07,26.52,2.19,13.64,5.98,27.53,3.14,41.04a5.644,5.644,0,0,1-1.52,3.23,5.964,5.964,0,0,1-3.32,1.07,173.7,173.7,0,0,1-31.76.57c-5.2-.38-11.16-1.5-13.69-6.05-1.41-2.54-1.39-5.59-1.34-8.5q.435-22.89.86-45.79c.17-8.75.33-17.53-.69-26.23-3.68-31.32-22.57-60.82-18.65-92.11,1.8-14.41,8.38-27.77,11.64-41.92,3.16-13.77,3.13-28.03,3.1-42.15q-.045-14.895-.09-29.79-.045-10.965-.06-21.91c-.03-6.82-.04-13.68,1.16-20.4a57.1,57.1,0,0,1,13.36-27.3c10.03-1.88,19.67-5.38,27.48-11.81,4.42-3.64,8.35-8.25,13.8-9.99,8.04-2.57,16.77,1.91,25.13.7,14.51-2.13,22.68-20.17,37.22-22.15a4.694,4.694,0,0,1,3.54.59c1.61,1.27,1.24,3.77.59,5.72-3.17,9.62-9.33,18.6-9.3,28.73.01,2.93.67,6.07,2.8,8.08,2.76,2.6,6.98,2.52,10.74,3.04,15.09,2.07,25.8,15.28,34.91,27.48,4.05,5.45,8.28,11.37,8.42,18.14.11,5.07-2.11,9.87-4.28,14.46-4.68,9.87-9.9,20.37-19.41,25.75-9.53,5.4-23.14,5.73-28.11,15.49-1.68,3.32-1.95,7.17-1.84,10.89a62.344,62.344,0,0,0,16.3,40.08c10.11,10.98,23.73,17.85,37.73,23.33a7.007,7.007,0,0,1,4.49-.47,14.669,14.669,0,0,1,4.78,2.49c1.16.79,2.32,1.58,3.48,2.38.08.53.17,1.06.26,1.59a238.493,238.493,0,0,0,22.41,69.15,97.79,97.79,0,0,1-32.82-4.88c-6.3-2.09-12.69-4.87-19.3-4.3-9.85.83-17.46,8.72-23.71,16.38q-7.035,8.625-13.44,17.75a11.592,11.592,0,0,1,2.39,1.83c3.5,3.48,4.18,8.81,4.69,13.72,2.5,23.77,6.09,48.65,20.41,67.79,3.65,4.88,7.97,9.32,10.84,14.7s4.1,12.14,1.24,17.53c-2.74,5.16-8.14,7.57-14.06,8.71a67.19,67.19,0,0,1-10.3,1.03q-15.96.54-31.9,1.09c-5.08.18-10.54.25-14.75-2.6a12.848,12.848,0,0,1-3.05-2.86c-4.99-6.52-3.42-17.21-3.37-26.12.18-28.75-22.8-53.05-25.89-81.64C467.17,848.14,467.1,847.44,467.05,846.75Zm5.74-172.19c-.77-3.22-1.55-6.43-2.3-9.63-1.22-5.18-2.38-10.41-3.39-15.68h-.01c-3.31-2.37-6.62-4.72-9.94-7.08-2.71-1.93-5.62-3.93-8.95-4.16-3.39-.23-6.6,1.44-9.46,3.26-3.47,2.2-6.98,5.04-7.88,9.03-.93,4.07,1.21,8.36,4.38,11.07s7.22,4.13,11.22,5.32C455.24,669.32,464.29,671.19,472.79,674.56ZM452.06,705.4a14.132,14.132,0,0,0-3.37-14.98c-1.9-1.8-4.28-3.02-6.31-4.67a11.648,11.648,0,0,1-2.87-3.23,50.072,50.072,0,0,0-10.49-3.75c-3.72-.88-8.29-1.05-10.69,1.93-2.94,3.64-.39,9.21,3.11,12.32a24.476,24.476,0,0,0,14.57,6.08c2.46.17,4.96-.04,7.38.43A13.472,13.472,0,0,1,452.06,705.4Z" fill="#ffcf99"/><path d="M448.69,690.42a14.132,14.132,0,0,1,3.37,14.98,13.472,13.472,0,0,0-8.67-5.87c-2.42-.47-4.92-.26-7.38-.43a24.476,24.476,0,0,1-14.57-6.08c-3.5-3.11-6.05-8.68-3.11-12.32,2.4-2.98,6.97-2.81,10.69-1.93a50.072,50.072,0,0,1,10.49,3.75,11.648,11.648,0,0,0,2.87,3.23C444.41,687.4,446.79,688.62,448.69,690.42Z" fill="#111d4a"/><path d="M470.49,664.93c.75,3.2,1.53,6.41,2.3,9.63-8.5-3.37-17.55-5.24-26.33-7.87-4-1.19-8.05-2.61-11.22-5.32s-5.31-7-4.38-11.07c.9-3.99,4.41-6.83,7.88-9.03,2.86-1.82,6.07-3.49,9.46-3.26,3.33.23,6.24,2.23,8.95,4.16,3.32,2.36,6.63,4.71,9.94,7.08h.01C468.11,654.52,469.27,659.75,470.49,664.93Z" fill="#111d4a"/><path d="M463.99,598.07c.17.27.37.54.56.81a118.045,118.045,0,0,0-.95,23.42c-3.29-2.84-6.51-5.79-9.62-8.84-1.89-1.85-3.83-3.8-6.29-4.77-3.87-1.52-8.28-.39-12.35-1.26a14.114,14.114,0,0,1-9.81-8.47,17.475,17.475,0,0,1,.19-13.14,13.428,13.428,0,0,1,4.06-5.64c4.25-3.27,10.31-2.66,15.37-.91,5.14,1.77,10.05,4.65,13.27,9.03C460.64,591.33,461.95,594.91,463.99,598.07Z" fill="#111d4a"/><path d="M708.84,637.55c-.22.19-.43.39-.64.58q-7.59,6.93-15.2,13.85c-5.36,4.89-10.9,10.03-14.22,16.38h-.01a57.485,57.485,0,0,0-20.47,14.76c-2.31-5.93-5.46-11.59-10.65-15.11-4.55-3.09-10.07-4.15-15.48-5.3,4.89-11.22,8.74-23.46,4.29-34.58-1.93-4.81-5.29-8.92-7.63-13.56-3.45-6.82-4.58-14.53-6.43-21.94a112.8,112.8,0,0,0-16.18-35.99q-2.94-4.32-6.26-8.34a17.064,17.064,0,0,0,4.47-2.97q-.33-23.97-1.84-47.92c9.63,4.13,17.66,11.23,25.13,18.86,2.17,2.22,4.28,4.49,6.38,6.73q12.525,13.455,25.06,26.9a103.761,103.761,0,0,0-14.36,17c.22,7.63,3.19,16.54,5.21,22.66q6.4,19.44,12.82,38.86c.56,1.72,1.5,3.75,3.31,3.87a5.13,5.13,0,0,0,2.95-1.2c9.94-6.42,23.26-4.7,33.91-9.83A67.853,67.853,0,0,1,708.84,637.55Z" fill="#111d4a"/><path d="M429.12,557.03a120.951,120.951,0,0,1-14.5,1.73c-14.93.92-30.05.01-44.73,2.88-6.4,1.25-12.77,3.22-19.29,2.91-8.75-.42-16.59-4.87-24.72-8.34,2.13-.1,4.29-.1,6.42-.18a78.48,78.48,0,0,0,26.06-5.48c-.66-2.14-1.36-4.27-2.15-6.36,1.51.23,3.03.4,4.55.54,11.89,1.06,23.62-.71,35.16-3.82h.01c11.13-3.01,22.06-7.27,32.78-11.47,9.63-3.78,19.31-7.55,29.06-11.16,11.06-4.09,22.22-7.97,33.46-11.41,9.32-2.86,18.7-5.41,28.15-7.53a277.43,277.43,0,0,1,28.55-4.93,224.211,224.211,0,0,1,22.9-1.52c-.29,8.77-1.79,17.33-6.41,24.56.49.53.98,1.05,1.48,1.56q11.385,11.835,22.78,23.64v.01c-.27,7.8-.03,15.64,2.59,22.93,2.38,6.62,6.6,12.41,9.6,18.77a88.777,88.777,0,0,1,5.7,17.3c.23.98.46,1.96.68,2.95a207.3,207.3,0,0,1,4.84,51.62c-2.38-1.08-4.72-2.27-7-3.55-5.88-3.31-11.53-7.32-18.1-8.92-5.54-1.34-12.06-.45-16.08,3.34a9.163,9.163,0,0,0-5.27,1.95,20.147,20.147,0,0,0-7.45,10.59c-.13.42-.23.84-.33,1.27l.23,1.04a6.087,6.087,0,0,1,5.29,1.79,17.277,17.277,0,0,1,3.4,5.5c2.49,5.47,5.05,11.51,3.54,17.34-.12.45-.32.97-.77,1.11a1.572,1.572,0,0,1-1.1-.27,15.262,15.262,0,0,0-2.29-.97,13.148,13.148,0,0,0-1.63-.46,16.346,16.346,0,0,0-5.49-.33,2.435,2.435,0,0,0-1.76.74,2.625,2.625,0,0,0-.36,1.64,18.623,18.623,0,0,0,1.4,7.78c-1.32,3.34-.12,7.32,2.17,10.11,2.38,2.91,5.74,4.82,9.01,6.65q7.59,4.26,15.17,8.51a32.1,32.1,0,0,1,7.59,5.3c.31.32.61.66.89,1.01,2.81,3.51,3.71,8.08,4.44,12.56-1.16-.8-2.32-1.59-3.48-2.38a14.669,14.669,0,0,0-4.78-2.49,7.007,7.007,0,0,0-4.49.47c-14-5.48-27.62-12.35-37.73-23.33a62.344,62.344,0,0,1-16.3-40.08c-.11-3.72.16-7.57,1.84-10.89,4.97-9.76,18.58-10.09,28.11-15.49,9.51-5.38,14.73-15.88,19.41-25.75,2.17-4.59,4.39-9.39,4.28-14.46-.14-6.77-4.37-12.69-8.42-18.14-9.11-12.2-19.82-25.41-34.91-27.48-3.76-.52-7.98-.44-10.74-3.04-2.13-2.01-2.79-5.15-2.8-8.08-.03-10.13,6.13-19.11,9.3-28.73.65-1.95,1.02-4.45-.59-5.72a4.694,4.694,0,0,0-3.54-.59c-14.54,1.98-22.71,20.02-37.22,22.15-8.36,1.21-17.09-3.27-25.13-.7-5.45,1.74-9.38,6.35-13.8,9.99C448.79,551.65,439.15,555.15,429.12,557.03Z" fill="#111d4a"/><path d="M137.94,477.32c20.11,13.55,37.61,31.69,60.06,40.1h.01c8.06,6.7,16.28,13.18,24.78,19.28-.6-.1-1.2-.22-1.79-.34-7.02-1.46-13.83-4.3-21-4.47a22.3,22.3,0,0,0-4.73.41,132.056,132.056,0,0,1-16.18-9.79c-7.38-5.41-13.78-12.03-20.12-18.61q-10.8-11.2-21.62-22.41L126.8,470.55C130.63,472.6,134.32,474.89,137.94,477.32Z" fill="#fe5f55"/><path d="M243.35,527.66l.74-.25c18.46,12.33,41.59,10.51,64.34,10.65a35.793,35.793,0,0,0,2.72,8.41,21.64,21.64,0,0,0,4.58,6.35c-19.09-4.16-40.3,4.55-58.17-3.48-5.61-2.52-10.46-6.56-16.17-8.83-5.89-2.35-12.34-2.69-18.59-3.81h-.01c-8.5-6.1-16.72-12.58-24.78-19.28H198c-10.15-8.43-20.05-17.2-29.93-25.94-5.99-5.3-12.13-10.81-15.57-18.03a201.717,201.717,0,0,1,50.89,34.03c5.78,5.29,11.29,10.96,17.38,15.82-1.85-18.21.95-42.41,4.54-58.09.19,8.34,5.06,15.72,8.17,23.47C238.49,501.13,239.07,515,243.35,527.66Z" fill="#111d4a"/><path d="M356.21,544.19c.79,2.09,1.49,4.22,2.15,6.36a78.48,78.48,0,0,1-26.06,5.48c-2.13.08-4.29.08-6.42.18-1.28.07-2.54.17-3.79.35a15.594,15.594,0,0,1-6.36-3.74,21.64,21.64,0,0,1-4.58-6.35,35.793,35.793,0,0,1-2.72-8.41c-.51-2.41-.87-4.87-1.23-7.31q-3.06-21.09-6.11-42.2c2.27,10.34,11.48,18.33,20.78,23.95,10.24,6.21,21.75,11.33,28.79,21.01A45.361,45.361,0,0,1,356.21,544.19Z" fill="#fe5f55"/><path d="M636.46,628.13c4.45,11.12.6,23.36-4.29,34.58-.84-.18-1.68-.35-2.51-.55q-.51-.1-1.02-.24a21.377,21.377,0,0,0-8.5-17.33q1.425,7.9,2.86,15.78-3.09-.945-6.1-2.12c1.08-18.27-3.29-36.18-7.25-54.17-2.82-12.78-5.42-25.61-5.72-38.62-.07-3.11.17-6.63,2.29-8.82a112.8,112.8,0,0,1,16.18,35.99c1.85,7.41,2.98,15.12,6.43,21.94C631.17,619.21,634.53,623.32,636.46,628.13Z" fill="#fe5f55"/><path d="M675.23,698.6a114.4,114.4,0,0,0-9.71,11.48c-.11-.64-.22-1.28-.34-1.92v-.01c-.5-2.69-1.07-5.36-1.72-8.03,4.55-3.63,8.97-7.47,12.18-12.3,3.78-5.7,5.67-13.11,3.2-19.49a.333.333,0,0,1-.06.03c3.32-6.35,8.86-11.49,14.22-16.38q7.605-6.93,15.2-13.85c.21-.19.42-.39.64-.58,2.1-1.92,4.23-3.82,6.45-5.59,4.96-.17,9.9-.59,14.82-1.23-1.5,2.82-3.85,5.08-5.85,7.57-7.44,9.38-9.67,22.31-17.96,30.97-2.55,2.66-5.58,4.82-8.06,7.54a15.832,15.832,0,0,0-3.76,6.57,35.124,35.124,0,0,0-8.12,5.14A114.133,114.133,0,0,0,675.23,698.6Z" fill="#fe5f55"/><path d="M757.67,516.84c-8.22,7.09-10.54,18.73-16.24,27.98-2.5,4.07-5.67,7.69-8.44,11.58-7.14,10.02-11.51,21.71-15.81,33.24q-5.55,14.97-11.12,29.91a26.29,26.29,0,0,1-2.69,1.53c-.12.06-.25.12-.37.18-10.65,5.13-23.97,3.41-33.91,9.83a5.13,5.13,0,0,1-2.95,1.2c-1.81-.12-2.75-2.15-3.31-3.87Q656.41,609,650.01,589.56c-2.02-6.12-4.99-15.03-5.21-22.66a103.761,103.761,0,0,1,14.36-17,105.962,105.962,0,0,1,36.6-22.89,213.559,213.559,0,0,1,21.4-6.17c1.77-.44,3.55-.89,5.33-1.33A63.829,63.829,0,0,0,757.67,516.84Z" fill="#fe5f55"/><path d="M602.59,497.41q1.515,23.925,1.84,47.92a17.064,17.064,0,0,1-4.47,2.97,111.361,111.361,0,0,0-11.02-11.55c-.1,1.96-.2,3.93-.26,5.9q-11.385-11.8-22.78-23.64c-.5-.51-.99-1.03-1.48-1.56,4.62-7.23,6.12-15.79,6.41-24.56.16-5.11-.09-10.3-.38-15.34q-1.1-19.17-2.2-38.32c-.64-11.01-1.28-22.06-3.18-32.92-2.91-16.65-8.78-33.25-6.65-50.02,1.63,28,24.68,49.69,34.59,75.94a117.7,117.7,0,0,1,6.07,25.45c.73,5.3,1.24,10.63,1.71,15.95Q601.84,485.5,602.59,497.41Z" fill="#fe5f55"/><path d="M709.31,358.94q-11.445,22.845-22.88,45.7c-4.53,9.05-9.09,18.17-11.73,27.93-4.08,15.02-3.65,31.55-11.4,45.06-8.75,15.22-26.54,24.01-35.58,38.64-7.47-7.63-15.5-14.73-25.13-18.86q-.75-11.9-1.8-23.78c-.47-5.32-.98-10.65-1.71-15.95A1222.516,1222.516,0,0,1,709.31,358.94Z" fill="#fe5f55"/><path d="M523.13,446.29c11.75,13.88,21.57,30.48,24.8,48.12a277.43,277.43,0,0,0-28.55,4.93c-9.45,2.12-18.83,4.67-28.15,7.53a32.682,32.682,0,0,1-2.19-3.98c-3.32-7.29-3.28-15.58-4.32-23.52-2.64-20.26-12.37-38.75-20.37-57.55s-14.45-39.46-10.08-59.41c2.46,12.23,9.97,22.81,18.19,32.18C488.37,412.74,507.53,427.86,523.13,446.29Z" fill="#fe5f55"/><path d="M427.66,480.56q15.06,18.855,30.11,37.72c-9.75,3.61-19.43,7.38-29.06,11.16-10.72,4.2-21.65,8.46-32.78,11.47h-.01a148.415,148.415,0,0,1-13.38-16.44c-6.21-8.89-11.38-18.45-16.52-27.98q-16.98-31.455-33.96-62.9c3.85,4.86,9.7,8.36,15.4,11.16a169.688,169.688,0,0,0,42.56,14.37c7.62,1.5,15.56,2.53,22.28,6.44C418.52,469.17,423.17,474.93,427.66,480.56Z" fill="#fe5f55"/><path d="M499.55,959.45c4.21,2.85,9.67,2.78,14.75,2.6q15.945-.54,31.9-1.09a67.19,67.19,0,0,0,10.3-1.03,410.356,410.356,0,0,0,199.4-55.22h.01c5.64,4.28,11.26,8.55,15.4,14.24a10.976,10.976,0,0,0,3.46,3.64c1.67.86,3.67.65,5.53.39a132.61,132.61,0,0,0,48.06-16.82c1.27-9.45-3.73-18.49-8.55-26.73-2.63-4.5-5.28-9.02-8.01-13.48a422.069,422.069,0,0,0,154-327c0-232.54-186.32-421.05-416.15-421.05C340.5,117.9,167.4,274,137.94,477.32c-3.62-2.43-7.31-4.72-11.14-6.77l10.55,10.94a428.652,428.652,0,0,0-3.85,57.46c0,214.31,158.26,391.23,363,417.64A12.848,12.848,0,0,0,499.55,959.45ZM543.38,31C819.31,31,1043,257.32,1043,536.5S819.31,1042,543.38,1042,43.76,815.68,43.76,536.5,267.45,31,543.38,31Z" fill="#1e1e24"/><path d="M301.08,488.49c-.16-1.07-.31-2.15-.47-3.22A22.5,22.5,0,0,0,301.08,488.49Zm81.46,35.98a148.415,148.415,0,0,0,13.38,16.44c-11.54,3.11-23.27,4.88-35.16,3.82-1.52-.14-3.04-.31-4.55-.54a45.361,45.361,0,0,0-5.55-10.68c-7.04-9.68-18.55-14.8-28.79-21.01-9.3-5.62-18.51-13.61-20.78-23.95q3.06,21.1,6.11,42.2c.36,2.44.72,4.9,1.23,7.31-22.75-.14-45.88,1.68-64.34-10.65l-.74.25c-4.28-12.66-4.86-26.53-9.87-38.98-3.11-7.75-7.98-15.13-8.17-23.47-3.59,15.68-6.39,39.88-4.54,58.09-6.09-4.86-11.6-10.53-17.38-15.82a201.717,201.717,0,0,0-50.89-34.03c3.44,7.22,9.58,12.73,15.57,18.03,9.88,8.74,19.78,17.51,29.93,25.94-22.45-8.41-39.95-26.55-60.06-40.1C167.4,274,340.5,117.9,549.65,117.9c229.83,0,416.15,188.51,416.15,421.05a422.069,422.069,0,0,1-154,327c-6.62-10.82-13.72-21.32-22.34-30.57-5.15-5.52-10.8-10.56-15.61-16.37-16.83-20.3-22.5-48.87-41.3-67.06-.59-6.32-4.21-12.59-6.9-18.61-4.38-9.77-6.47-20.37-8.53-30.88q-2.715-13.935-5.45-27.89,8.88-10.41,17.78-20.83c4.58-5.36,9.21-10.79,12.38-17.09s4.81-13.64,3.05-20.48c-7.69,5.1-16.93,7.42-24.75,12.32a51.408,51.408,0,0,0-4.84,3.47c-2.22,1.77-4.35,3.67-6.45,5.59A67.853,67.853,0,0,0,703,621.26c.12-.06.25-.12.37-.18a26.29,26.29,0,0,0,2.69-1.53c6.46-4.16,11.18-10.77,14.67-17.68,3.96-7.84,6.6-16.27,10.4-24.19,13.03-27.07,38.35-45.67,58.92-67.57-2.27-.12-4.53-.17-6.79-.17-20.49,0-40.77,4.62-60.77,9.57-1.78.44-3.56.89-5.33,1.33a213.559,213.559,0,0,0-21.4,6.17,105.962,105.962,0,0,0-36.6,22.89Q646.635,536.445,634.1,523c-2.1-2.24-4.21-4.51-6.38-6.73,9.04-14.63,26.83-23.42,35.58-38.64,7.75-13.51,7.32-30.04,11.4-45.06,2.64-9.76,7.2-18.88,11.73-27.93q11.43-22.845,22.88-45.7a1222.516,1222.516,0,0,0-110.23,98.74,117.7,117.7,0,0,0-6.07-25.45c-9.91-26.25-32.96-47.94-34.59-75.94-2.13,16.77,3.74,33.37,6.65,50.02,1.9,10.86,2.54,21.91,3.18,32.92q1.1,19.17,2.2,38.32c.29,5.04.54,10.23.38,15.34a224.211,224.211,0,0,0-22.9,1.52c-3.23-17.64-13.05-34.24-24.8-48.12-15.6-18.43-34.76-33.55-50.67-51.7-8.22-9.37-15.73-19.95-18.19-32.18-4.37,19.95,2.08,40.62,10.08,59.41s17.73,37.29,20.37,57.55c1.04,7.94,1,16.23,4.32,23.52a32.682,32.682,0,0,0,2.19,3.98c-11.24,3.44-22.4,7.32-33.46,11.41q-15.06-18.855-30.11-37.72c-4.49-5.63-9.14-11.39-15.36-15-6.72-3.91-14.66-4.94-22.28-6.44a169.688,169.688,0,0,1-42.56-14.37c-5.7-2.8-11.55-6.3-15.4-11.16-1.19-2.2-2.37-4.41-3.57-6.61a20.446,20.446,0,0,0,3.57,6.61q16.98,31.44,33.96,62.9C371.16,506.02,376.33,515.58,382.54,524.47Z" fill="#759eb8"/><g clip-path="url(#clip-path-3)"><path d="M205.838,81.81a298.563,298.563,0,0,0-43.215,68.13c-10.834,23.811-20.643,50.3-19.679,76.856a78.7,78.7,0,0,0,11.342,38.321c6.645,10.943,15.339,20.47,23.614,30.174,16.776,19.677,33.5,40.547,43.067,64.846,21.729,55.219-5.566,110.871-31.126,159.437-13.246,25.167-26.257,50.481-34.5,77.808-7.88,26.127-11.911,53.341-13.238,80.565-3.106,63.714,8.31,127.175,19.965,189.537,1.181,6.318,10.82,3.643,9.643-2.658-10.3-55.129-20.245-110.8-20.1-167.08.069-27.621,2.657-55.263,9.156-82.146s17.4-51.865,30.056-76.352c24.808-48,55.148-99.258,46.82-155.574-3.707-25.064-15.929-47.762-30.7-68-7.576-10.377-15.794-20.265-24.154-30.014-8.469-9.875-17.235-19.718-23.105-31.438-13.91-27.771-4.127-60.622,6.651-87.688a285.888,285.888,0,0,1,46.582-77.653c4.11-4.9-2.929-12.009-7.071-7.071Z" fill="#cee3ed"/><path d="M354.917,129.067c-13.607-8.924-29.619-2.551-41.273,6.578C300.4,146.017,289.4,161.277,283.23,176.878a55.1,55.1,0,0,0,2.6,47.237c7.584,13.94,20.063,24.562,32.538,33.989,26.958,20.371,54.816,39.093,79.1,62.792,24.075,23.5,44.788,51.34,54.612,83.884,9.843,32.6,8.708,68.092-2.458,100.211-10.963,31.534-32.379,55.468-55.429,78.8-21.07,21.325-43.281,43.083-54.705,71.39-14.483,35.888-3.91,73.837,9.885,108.133,15.228,37.86,31.34,75.533,48.026,112.774,7.562,16.878,15.855,33.553,26.593,48.667,10.3,14.491,23.247,26.463,34.973,39.722a111.656,111.656,0,0,1,15.247,21.413c3.026,5.682,11.662.636,8.635-5.047-7.937-14.9-19.875-26.874-31.415-38.988a204.857,204.857,0,0,1-31.79-43.046c-8.862-16.141-16.033-33.134-23.287-50.036q-12.051-28.077-24-56.195c-14.774-34.89-34.479-73.424-29.241-112.478,4.037-30.094,24.006-54.033,44.343-75.164,21.036-21.858,44.035-42.564,59.169-69.229a173.059,173.059,0,0,0,21.939-93.826c-1.726-32.806-13.226-63.907-32-90.754s-43.2-49.087-68.95-69.113c-12.854-10-26.147-19.359-39.313-28.931-12.466-9.062-25.308-19.213-33.129-32.763-8.756-15.17-7.3-32.054.755-47.212,7.456-14.036,18.767-28.671,33.425-35.653,6.82-3.249,14.022-4.018,20.527.248,5.4,3.54,10.413-5.115,5.047-8.634Z" fill="#cee3ed"/><path d="M666.112,86.123c-18.369-11.29-40.743-8.294-59.9-.633-20.891,8.357-40.154,21.323-57.484,35.543-31,25.44-65.688,66.641-52.391,109.909,6.047,19.676,21.324,34.115,37.385,46.051,19.912,14.8,41.106,28.03,61.691,41.867,20.548,13.813,41.286,27.383,61.58,41.568,17.161,12,33.922,24.854,48.086,40.364,14.2,15.543,25.132,33.842,29.9,54.479,4.991,21.6,3.251,44.246-2.4,65.535-12.1,45.554-41.3,82.929-70.9,118.541-29.909,35.98-59.87,71.991-79.024,115.123-18.518,41.7-26.784,88.172-17.123,133.254,8.7,40.576,32.719,74.626,65.358,99.652,31.239,23.953,68.237,39.5,105.447,51.581,9.432,3.062,18.938,5.89,28.484,8.576,6.205,1.747,8.853-7.9,2.658-9.643-71.134-20.021-153.68-51.807-183.958-125.621-17.171-41.859-14.852-89.093-.553-131.388,14.813-43.814,41.79-81.369,70.984-116.678,28.392-34.338,58.9-68.31,77.122-109.477,17.015-38.446,23.912-82.924,6.717-122.562-16.1-37.116-49.775-62.638-82.213-84.841-20.2-13.824-40.6-27.345-60.915-41-19.49-13.1-39.767-25.5-58.38-39.844-15.9-12.254-30.7-28.194-32.5-49.152-1.786-20.9,8-40.9,20.256-57.205,13.274-17.66,30.8-32.485,48.965-44.889,17.6-12.015,37.842-24.243,59.508-26.375,10.088-.993,19.844.546,28.55,5.9,5.5,3.379,10.527-5.267,5.048-8.635Z" fill="#cee3ed"/><path d="M864.454,190.9c-28.469-13.58-55.559,14.162-69.647,36.037-16,24.849-23.688,54.435-24.9,83.785-2.733,66.435,29.06,127.849,64.56,181.841,18.594,28.28,39.656,55.924,51.275,88.047,10.949,30.271,12.919,65.435-5.059,93.459-8.312,12.957-19.57,23.656-29.9,34.954-10.256,11.217-19.476,23.207-25.691,37.166-12.088,27.149-13.866,57.506-8.714,86.534,11.332,63.845,56.651,113.415,102.048,156.56q9.009,8.562,18.125,17.014c4.7,4.385,11.79-2.671,7.071-7.071-44.788-41.761-93.465-86.647-112.181-146.924-8.56-27.568-10.947-57.7-3.137-85.736a111.2,111.2,0,0,1,19-38.117c9.215-11.957,20.361-22.254,30.172-33.7,9.59-11.188,17.634-23.4,22.1-37.545,4.564-14.469,5.5-30.053,3.805-45.075-3.622-32.084-18.5-60.871-35.711-87.689-17.573-27.382-36.545-53.741-52.042-82.42-15.459-28.607-27.922-59.157-33.292-91.365-4.748-28.478-3.278-58.415,5.667-85.938a139.551,139.551,0,0,1,18.88-37.813c8.17-11.485,18.775-22.911,32.414-27.682,6.619-2.315,13.658-2.766,20.111.312,5.78,2.757,10.859-5.862,5.048-8.635Z" fill="#cee3ed"/><path d="M1008.469,314.08C944.7,351.254,908.422,428.786,920.737,501.562c3.869,22.862,12.414,44.579,17.368,67.187,5.411,24.689,4.38,49.85,3.508,74.932-.876,25.179.063,50.173,1.532,75.311,1.443,24.68,2.872,49.452,1.2,74.16-2.9,42.827-17.387,89.291-53.447,115.672-5.141,3.761-.158,12.443,5.047,8.635,31.643-23.15,48.6-60.115,55.242-97.954,8.223-46.866,1.095-94.429.043-141.554-.554-24.825,1.779-49.622,1-74.44-.762-24.293-6.6-47.024-13.361-70.226C932.961,513,928.116,492.8,928.274,471.554a173.9,173.9,0,0,1,9.151-53.813c13.175-39.387,40.1-74.045,76.091-95.026,5.557-3.24.529-11.886-5.047-8.635Z" fill="#cee3ed"/></g><circle cx="613.5" cy="749.5" r="6.5" fill="#111d4a"/><circle cx="642.5" cy="778.5" r="4.5" fill="#111d4a"/><circle cx="638.5" cy="808.5" r="4.5" fill="#111d4a"/><path d="M557.44,662.14a3.718,3.718,0,0,1,.65-.19,6.087,6.087,0,0,1,5.29,1.79,17.277,17.277,0,0,1,3.4,5.5c2.49,5.47,5.05,11.51,3.54,17.34-.12.45-.32.97-.77,1.11a1.572,1.572,0,0,1-1.1-.27,15.262,15.262,0,0,0-2.29-.97,13.148,13.148,0,0,0-1.63-.46" fill="none" stroke="#000" stroke-linecap="round" stroke-linejoin="round" stroke-width="3"/><path d="M575.43,693.29c.36.27.74.54,1.1.81-2.6.82-4.81,2.57-7.22,3.87s-5.36,2.14-7.86,1.03a6.336,6.336,0,0,1-3.13-3.18,18.623,18.623,0,0,1-1.4-7.78,2.625,2.625,0,0,1,.36-1.64,2.435,2.435,0,0,1,1.76-.74,16.346,16.346,0,0,1,5.49.33" fill="none" stroke="#000" stroke-linecap="round" stroke-linejoin="round" stroke-width="3"/><path d="M566.16,686.45q4.635,3.42,9.26,6.84" fill="none" stroke="#000" stroke-linecap="round" stroke-linejoin="round" stroke-width="3"/><path d="M558.32,695.82c-1.32,3.34-.12,7.32,2.17,10.11,2.38,2.91,5.74,4.82,9.01,6.65q7.59,4.26,15.17,8.51a32.1,32.1,0,0,1,7.59,5.3c.31.32.61.66.89,1.01,2.81,3.51,3.71,8.08,4.44,12.56.08.53.17,1.06.26,1.59a238.493,238.493,0,0,0,22.41,69.15c.43.86.87,1.72,1.32,2.57a30.89,30.89,0,0,0,4.37,6.81c2.42,2.68,5.62,4.49,8.78,6.24,6.59,3.67,15.08,7.22,21.17,2.77a20.165,20.165,0,0,0,4.85-5.98q3.72-6.03,7.44-12.07a30.294,30.294,0,0,0,2.18-3.94,11.632,11.632,0,0,0,.86-2.76c.71-4.13-1.3-8.27-1.14-12.45a14.89,14.89,0,0,1,1.19-5.14c1.32-3.16,3.46-6.1,5.31-9.05,11.27-18.03,12.21-40.21,11.72-61.72-.03-1.16-.06-2.32-.09-3.47" fill="none" stroke="#000" stroke-linecap="round" stroke-linejoin="round" stroke-width="3"/><path d="M558.19,659.64c-.13.42-.23.84-.33,1.27" fill="none" stroke="#000" stroke-linecap="round" stroke-linejoin="round" stroke-width="3"/><path d="M558.19,659.64a29,29,0,0,1,17.51,1.85c2.7,1.21,5.34,2.85,8.29,2.92-.51-.85-1.03-1.71-1.55-2.57-2.24-3.72-4.48-7.43-6.74-11.16a8.056,8.056,0,0,0-2.39-2.87,4.535,4.535,0,0,0-2.4-.71,9.163,9.163,0,0,0-5.27,1.95,20.147,20.147,0,0,0-7.45,10.59" fill="none" stroke="#000" stroke-linecap="round" stroke-linejoin="round" stroke-width="3"/><path d="M665.18,708.15c-.5-2.69-1.07-5.36-1.72-8.03q-1.56-6.51-3.69-12.89c-.45-1.37-.94-2.75-1.47-4.11-2.31-5.93-5.46-11.59-10.65-15.11-4.55-3.09-10.07-4.15-15.48-5.3-.84-.18-1.68-.35-2.51-.55q-.51-.1-1.02-.24-2.85-.675-5.64-1.55-3.09-.945-6.1-2.12c-1.63-.62-3.23-1.3-4.81-2.02-2.38-1.08-4.72-2.27-7-3.55-5.88-3.31-11.53-7.32-18.1-8.92-5.54-1.34-12.06-.45-16.08,3.34" fill="none" stroke="#000" stroke-linecap="round" stroke-linejoin="round" stroke-width="3"/><path d="M665.52,710.08c-.11-.64-.22-1.28-.34-1.92" fill="none" stroke="#000" stroke-linecap="round" stroke-linejoin="round" stroke-width="3"/><path d="M575.42,693.29h.01c3.13.57,6.25,1.52,9.43,1.7a38.853,38.853,0,0,0,10.43-1.27,9.614,9.614,0,0,0,4.11-1.56c2.83-2.24,2.24-6.87.11-9.78-2.11-2.92-5.33-4.85-7.73-7.54-2.31-2.57-3.81-5.77-5.76-8.63a31.047,31.047,0,0,0-3.58-4.37" fill="none" stroke="#000" stroke-linecap="round" stroke-linejoin="round" stroke-width="3"/><path d="M586.28,651.29c-1.15-.02-2.32-.49-3.39-.18a4.69,4.69,0,0,1,3.64-2.63,1.8,1.8,0,0,1,1.77.62C588.93,650.15,587.49,651.31,586.28,651.29Z" fill="none" stroke="#000" stroke-linecap="round" stroke-linejoin="round" stroke-width="3"/><line x1="665.18" y1="708.16" x2="665.18" y2="708.15" fill="none" stroke="#000" stroke-linecap="round" stroke-linejoin="round" stroke-width="3"/><path d="M668.3,714.14c-.31-.32-.6-.64-.89-.97a9.967,9.967,0,0,1-1.99-2.95" fill="none" stroke="#000" stroke-linecap="round" stroke-linejoin="round" stroke-width="3"/><path d="M688.22,712.51a70.67,70.67,0,0,1-5.23,9.5,4.2,4.2,0,0,1-2.09,1.97c-1.34.41-2.69-.51-3.77-1.41a91.125,91.125,0,0,1-8.83-8.42" fill="none" stroke="#000" stroke-linecap="round" stroke-linejoin="round" stroke-width="3"/><path d="M665.42,710.22a1.213,1.213,0,0,1,.1-.14,113.229,113.229,0,0,1,20.84-21.56,35.124,35.124,0,0,1,8.12-5.14c.39-.17.8-.32,1.21-.46q-1.185,6.57-2.38,13.15c-.67,3.63-1.32,7.26-1.98,10.89-.56,3.11-1.31,6.48-3.02,9.02" fill="none" stroke="#000" stroke-linecap="round" stroke-linejoin="round" stroke-width="3"/><path d="M678.78,668.36a.333.333,0,0,0,.06-.03c2.47,6.38.58,13.79-3.2,19.49-3.21,4.83-7.63,8.67-12.18,12.3" fill="none" stroke="#000" stroke-linecap="round" stroke-linejoin="round" stroke-width="3"/><path d="M658.3,683.12a57.485,57.485,0,0,1,20.47-14.76" fill="none" stroke="#000" stroke-linecap="round" stroke-linejoin="round" stroke-width="3"/><path d="M678.77,668.36h.01c3.32-6.35,8.86-11.49,14.22-16.38q7.605-6.93,15.2-13.85c.21-.19.42-.39.64-.58,2.1-1.92,4.23-3.82,6.45-5.59a51.408,51.408,0,0,1,4.84-3.47c7.82-4.9,17.06-7.22,24.75-12.32,1.76,6.84.13,14.18-3.05,20.48s-7.8,11.73-12.38,17.09q-8.9,10.41-17.78,20.83-9.18,10.755-18.36,21.5" fill="none" stroke="#000" stroke-linecap="round" stroke-linejoin="round" stroke-width="3"/><path d="M715.29,631.96c4.96-.17,9.9-.59,14.82-1.23-1.5,2.82-3.85,5.08-5.85,7.57-7.44,9.38-9.67,22.31-17.96,30.97-2.55,2.66-5.58,4.82-8.06,7.54a15.832,15.832,0,0,0-3.76,6.57" fill="none" stroke="#000" stroke-linecap="round" stroke-linejoin="round" stroke-width="3"/><path d="M588.68,542.65c.06-1.97.16-3.94.26-5.9a111.361,111.361,0,0,1,11.02,11.55q3.315,4.02,6.26,8.34a112.8,112.8,0,0,1,16.18,35.99c1.85,7.41,2.98,15.12,6.43,21.94,2.34,4.64,5.7,8.75,7.63,13.56,4.45,11.12.6,23.36-4.29,34.58" fill="none" stroke="#000" stroke-linecap="round" stroke-linejoin="round" stroke-width="3"/><path d="M612.09,656.23a207.3,207.3,0,0,0-4.84-51.62c-.22-.99-.45-1.97-.68-2.95a88.777,88.777,0,0,0-5.7-17.3c-3-6.36-7.22-12.15-9.6-18.77-2.62-7.29-2.86-15.13-2.59-22.93" fill="none" stroke="#000" stroke-linecap="round" stroke-linejoin="round" stroke-width="3"/><path d="M623,660.37q-1.425-7.89-2.86-15.78a21.377,21.377,0,0,1,8.5,17.33" fill="none" stroke="#000" stroke-linecap="round" stroke-linejoin="round" stroke-width="3"/><path d="M606.22,556.64c-2.12,2.19-2.36,5.71-2.29,8.82.3,13.01,2.9,25.84,5.72,38.62,3.96,17.99,8.33,35.9,7.25,54.17" fill="none" stroke="#000" stroke-linecap="round" stroke-linejoin="round" stroke-width="3"/><path d="M703,621.26c-10.65,5.13-23.97,3.41-33.91,9.83a5.13,5.13,0,0,1-2.95,1.2c-1.81-.12-2.75-2.15-3.31-3.87Q656.41,609,650.01,589.56c-2.02-6.12-4.99-15.03-5.21-22.66a103.761,103.761,0,0,1,14.36-17,105.962,105.962,0,0,1,36.6-22.89,213.559,213.559,0,0,1,21.4-6.17c1.77-.44,3.55-.89,5.33-1.33,20-4.95,40.28-9.57,60.77-9.57,2.26,0,4.52.05,6.79.17-20.57,21.9-45.89,40.5-58.92,67.57-3.8,7.92-6.44,16.35-10.4,24.19-3.49,6.91-8.21,13.52-14.67,17.68a26.29,26.29,0,0,1-2.69,1.53c-.12.06-.25.12-.37.18" fill="none" stroke="#000" stroke-linecap="round" stroke-linejoin="round" stroke-width="3"/><path d="M722.49,519.51a63.829,63.829,0,0,0,35.18-2.67c-8.22,7.09-10.54,18.73-16.24,27.98-2.5,4.07-5.67,7.69-8.44,11.58-7.14,10.02-11.51,21.71-15.81,33.24q-5.55,14.97-11.12,29.91" fill="none" stroke="#000" stroke-linecap="round" stroke-linejoin="round" stroke-width="3"/><path d="M467.05,846.73c-.81-10.88,1.17-21.81,3.12-32.57,2.8-15.35,5.81-31.22,14.68-44.05,5-7.23,11.65-13.15,17.38-19.81,1.43-1.66,2.8-3.36,4.08-5.14,6.23-8.68,11.29-20.01,21.68-22.52" fill="none" stroke="#000" stroke-linecap="round" stroke-linejoin="round" stroke-width="3"/><path d="M496.5,956.59c-4.99-6.52-3.42-17.21-3.37-26.12.18-28.75-22.8-53.05-25.89-81.64-.07-.69-.14-1.39-.19-2.08" fill="none" stroke="#000" stroke-linecap="round" stroke-linejoin="round" stroke-width="3"/><path d="M484.8,813.02a47.359,47.359,0,0,0,31.71,19.44c4.91.7,10.35.79,14.48,3.19a11.592,11.592,0,0,1,2.39,1.83c3.5,3.48,4.18,8.81,4.69,13.72,2.5,23.77,6.09,48.65,20.41,67.79,3.65,4.88,7.97,9.32,10.84,14.7s4.1,12.14,1.24,17.53c-2.74,5.16-8.14,7.57-14.06,8.71" fill="none" stroke="#000" stroke-linecap="round" stroke-linejoin="round" stroke-width="3"/><path d="M530.99,835.65q6.4-9.1,13.44-17.75c6.25-7.66,13.86-15.55,23.71-16.38,6.61-.57,13,2.21,19.3,4.3a97.79,97.79,0,0,0,32.82,4.88" fill="none" stroke="#000" stroke-linecap="round" stroke-linejoin="round" stroke-width="3"/><path d="M755.9,904.71c-4.49-3.41-8.99-6.82-12.77-10.96-15.82-17.33-16.32-44.09-29.78-63.33a55.98,55.98,0,0,0-42.98-23.32" fill="none" stroke="#000" stroke-linecap="round" stroke-linejoin="round" stroke-width="3"/><path d="M732.55,751.95c18.8,18.19,24.47,46.76,41.3,67.06,4.81,5.81,10.46,10.85,15.61,16.37,8.62,9.25,15.72,19.75,22.34,30.57,2.73,4.46,5.38,8.98,8.01,13.48,4.82,8.24,9.82,17.28,8.55,26.73a132.61,132.61,0,0,1-48.06,16.82c-1.86.26-3.86.47-5.53-.39a10.976,10.976,0,0,1-3.46-3.64c-4.14-5.69-9.76-9.96-15.4-14.24" fill="none" stroke="#000" stroke-linecap="round" stroke-linejoin="round" stroke-width="3"/><path d="M711.67,674.57q2.715,13.95,5.45,27.89c2.06,10.51,4.15,21.11,8.53,30.88,2.69,6.02,6.31,12.29,6.9,18.61" fill="none" stroke="#000" stroke-linecap="round" stroke-linejoin="round" stroke-width="3"/><path d="M482.48,735.54a80.886,80.886,0,0,0,19.75,14.76" fill="none" stroke="#000" stroke-linecap="round" stroke-linejoin="round" stroke-width="3"/><path d="M467.09,649.25a198.953,198.953,0,0,1-3.49-26.95,118.045,118.045,0,0,1,.95-23.42,88.9,88.9,0,0,1,3.62-15.31" fill="none" stroke="#000" stroke-linecap="round" stroke-linejoin="round" stroke-width="3"/><path d="M482.48,735.54c.14-20.49-4.8-40.84-9.69-60.98-.77-3.22-1.55-6.43-2.3-9.63-1.22-5.18-2.38-10.41-3.39-15.68" fill="none" stroke="#000" stroke-linecap="round" stroke-linejoin="round" stroke-width="3"/><path d="M467.05,846.73v.02c-2.03,8.44-1.47,17.81-.07,26.52,2.19,13.64,5.98,27.53,3.14,41.04a5.644,5.644,0,0,1-1.52,3.23,5.964,5.964,0,0,1-3.32,1.07,173.7,173.7,0,0,1-31.76.57c-5.2-.38-11.16-1.5-13.69-6.05-1.41-2.54-1.39-5.59-1.34-8.5q.435-22.89.86-45.79c.17-8.75.33-17.53-.69-26.23-3.68-31.32-22.57-60.82-18.65-92.11,1.8-14.41,8.38-27.77,11.64-41.92,3.16-13.77,3.13-28.03,3.1-42.15q-.045-14.895-.09-29.79-.045-10.965-.06-21.91c-.03-6.82-.04-13.68,1.16-20.4a58.035,58.035,0,0,1,39.32-44.31" fill="none" stroke="#000" stroke-linecap="round" stroke-linejoin="round" stroke-width="3"/><path d="M220.77,523.3c-1.85-18.21.95-42.41,4.54-58.09.19,8.34,5.06,15.72,8.17,23.47,5.01,12.45,5.59,26.32,9.87,38.98.53,1.58,1.12,3.14,1.79,4.68" fill="none" stroke="#000" stroke-linecap="round" stroke-linejoin="round" stroke-width="3"/><path d="M198,517.42c-10.15-8.43-20.05-17.2-29.93-25.94-5.99-5.3-12.13-10.81-15.57-18.03a201.717,201.717,0,0,1,50.89,34.03c5.78,5.29,11.29,10.96,17.38,15.82" fill="none" stroke="#000" stroke-linecap="round" stroke-linejoin="round" stroke-width="3"/><path d="M137.35,481.49,126.8,470.55c3.83,2.05,7.52,4.34,11.14,6.77" fill="none" stroke="#000" stroke-linecap="round" stroke-linejoin="round" stroke-width="3"/><path d="M414.66,626.64c-9.55-6.51-21.12-10.21-32.24-13.85q-37.44-12.255-73.94-27.15c-37.29-15.27-73.68-32.71-109.41-51.34-1.27-.66-2.54-1.33-3.8-2" fill="none" stroke="#000" stroke-linecap="round" stroke-linejoin="round" stroke-width="3"/><path d="M659.16,549.9Q646.635,536.445,634.1,523c-2.1-2.24-4.21-4.51-6.38-6.73-7.47-7.63-15.5-14.73-25.13-18.86" fill="none" stroke="#000" stroke-linecap="round" stroke-linejoin="round" stroke-width="3"/><path d="M395.92,540.91c-11.54,3.11-23.27,4.88-35.16,3.82-1.52-.14-3.04-.31-4.55-.54" fill="none" stroke="#000" stroke-linecap="round" stroke-linejoin="round" stroke-width="3"/><path d="M570.83,492.89a224.211,224.211,0,0,0-22.9,1.52,277.43,277.43,0,0,0-28.55,4.93c-9.45,2.12-18.83,4.67-28.15,7.53-11.24,3.44-22.4,7.32-33.46,11.41-9.75,3.61-19.43,7.38-29.06,11.16-10.72,4.2-21.65,8.46-32.78,11.47" fill="none" stroke="#000" stroke-linecap="round" stroke-linejoin="round" stroke-width="3"/><path d="M244.09,527.41c18.46,12.33,41.59,10.51,64.34,10.65" fill="none" stroke="#000" stroke-linecap="round" stroke-linejoin="round" stroke-width="3"/><path d="M564.42,517.45c4.62-7.23,6.12-15.79,6.41-24.56.16-5.11-.09-10.3-.38-15.34q-1.1-19.17-2.2-38.32c-.64-11.01-1.28-22.06-3.18-32.92-2.91-16.65-8.78-33.25-6.65-50.02,1.63,28,24.68,49.69,34.59,75.94a117.7,117.7,0,0,1,6.07,25.45c.73,5.3,1.24,10.63,1.71,15.95q1.05,11.865,1.8,23.78,1.515,23.925,1.84,47.92" fill="none" stroke="#000" stroke-linecap="round" stroke-linejoin="round" stroke-width="3"/><path d="M604.43,545.33a17.064,17.064,0,0,1-4.47,2.97" fill="none" stroke="#000" stroke-linecap="round" stroke-linejoin="round" stroke-width="3"/><path d="M588.68,542.66v-.01q-11.385-11.8-22.78-23.64c-.5-.51-.99-1.03-1.48-1.56" fill="none" stroke="#000" stroke-linecap="round" stroke-linejoin="round" stroke-width="3"/><path d="M599.08,457.68a1222.516,1222.516,0,0,1,110.23-98.74q-11.445,22.845-22.88,45.7c-4.53,9.05-9.09,18.17-11.73,27.93-4.08,15.02-3.65,31.55-11.4,45.06-8.75,15.22-26.54,24.01-35.58,38.64" fill="none" stroke="#000" stroke-linecap="round" stroke-linejoin="round" stroke-width="3"/><path d="M547.93,494.41c-3.23-17.64-13.05-34.24-24.8-48.12-15.6-18.43-34.76-33.55-50.67-51.7-8.22-9.37-15.73-19.95-18.19-32.18-4.37,19.95,2.08,40.62,10.08,59.41s17.73,37.29,20.37,57.55c1.04,7.94,1,16.23,4.32,23.52a32.682,32.682,0,0,0,2.19,3.98" fill="none" stroke="#000" stroke-linecap="round" stroke-linejoin="round" stroke-width="3"/><path d="M332.06,433.59c3.85,4.86,9.7,8.36,15.4,11.16a169.688,169.688,0,0,0,42.56,14.37c7.62,1.5,15.56,2.53,22.28,6.44,6.22,3.61,10.87,9.37,15.36,15q15.06,18.855,30.11,37.72" fill="none" stroke="#000" stroke-linecap="round" stroke-linejoin="round" stroke-width="3"/><path d="M332.06,433.59a20.446,20.446,0,0,1-3.57-6.61C329.69,429.18,330.87,431.39,332.06,433.59Z" fill="none" stroke="#000" stroke-linecap="round" stroke-linejoin="round" stroke-width="3"/><path d="M395.93,540.91h-.01a148.415,148.415,0,0,1-13.38-16.44c-6.21-8.89-11.38-18.45-16.52-27.98q-16.98-31.455-33.96-62.9" fill="none" stroke="#000" stroke-linecap="round" stroke-linejoin="round" stroke-width="3"/><path d="M301.09,488.55c2.27,10.34,11.48,18.33,20.78,23.95,10.24,6.21,21.75,11.33,28.79,21.01a45.361,45.361,0,0,1,5.55,10.68c.79,2.09,1.49,4.22,2.15,6.36" fill="none" stroke="#000" stroke-linecap="round" stroke-linejoin="round" stroke-width="3"/><path d="M301.08,488.49a22.5,22.5,0,0,1-.47-3.22C300.77,486.34,300.92,487.42,301.08,488.49Z" fill="none" stroke="#000" stroke-linecap="round" stroke-linejoin="round" stroke-width="3"/><path d="M301.08,488.49c0,.03,0,.05.01.06" fill="none" stroke="#000" stroke-linecap="round" stroke-linejoin="round" stroke-width="3"/><path d="M322.09,556.56a15.594,15.594,0,0,1-6.36-3.74,21.64,21.64,0,0,1-4.58-6.35,35.793,35.793,0,0,1-2.72-8.41c-.51-2.41-.87-4.87-1.23-7.31q-3.06-21.09-6.11-42.2" fill="none" stroke="#000" stroke-linecap="round" stroke-linejoin="round" stroke-width="3"/><path d="M668.3,714.14v.01c-1.3,7.24-3.18,14.56-8.29,19.71a.812.812,0,0,1-.1.09c-5.35,5.32-13.35,7.26-20.88,6.81-7.59-.45-14.85-3.02-22.01-5.56q-12.375-4.41-24.76-8.81c-.34-.13-.69-.25-1.03-.37" fill="none" stroke="#000" stroke-linecap="round" stroke-linejoin="round" stroke-width="3"/><path d="M659.91,733.95c3.05,17.76,6.25,35.57,11.37,52.8" fill="none" stroke="#000" stroke-linecap="round" stroke-linejoin="round" stroke-width="3"/><path d="M315.73,552.82c-19.09-4.16-40.3,4.55-58.17-3.48-5.61-2.52-10.46-6.56-16.17-8.83-5.89-2.35-12.34-2.69-18.59-3.81h-.01" fill="none" stroke="#000" stroke-linecap="round" stroke-linejoin="round" stroke-width="3"/><path d="M325.88,556.21c8.13,3.47,15.97,7.92,24.72,8.34,6.52.31,12.89-1.66,19.29-2.91,14.68-2.87,29.8-1.96,44.73-2.88a120.951,120.951,0,0,0,14.5-1.73c10.03-1.88,19.67-5.38,27.48-11.81,4.42-3.64,8.35-8.25,13.8-9.99,8.04-2.57,16.77,1.91,25.13.7,14.51-2.13,22.68-20.17,37.22-22.15a4.694,4.694,0,0,1,3.54.59c1.61,1.27,1.24,3.77.59,5.72-3.17,9.62-9.33,18.6-9.3,28.73.01,2.93.67,6.07,2.8,8.08,2.76,2.6,6.98,2.52,10.74,3.04,15.09,2.07,25.8,15.28,34.91,27.48,4.05,5.45,8.28,11.37,8.42,18.14.11,5.07-2.11,9.87-4.28,14.46-4.68,9.87-9.9,20.37-19.41,25.75-9.53,5.4-23.14,5.73-28.11,15.49-1.68,3.32-1.95,7.17-1.84,10.89a62.344,62.344,0,0,0,16.3,40.08c10.11,10.98,23.73,17.85,37.73,23.33" fill="none" stroke="#000" stroke-linecap="round" stroke-linejoin="round" stroke-width="3"/><path d="M463.6,622.3c-3.29-2.84-6.51-5.79-9.62-8.84-1.89-1.85-3.83-3.8-6.29-4.77-3.87-1.52-8.28-.39-12.35-1.26a14.114,14.114,0,0,1-9.81-8.47,17.475,17.475,0,0,1,.19-13.14,13.428,13.428,0,0,1,4.06-5.64c4.25-3.27,10.31-2.66,15.37-.91,5.14,1.77,10.05,4.65,13.27,9.03,2.22,3.03,3.53,6.61,5.57,9.77.17.27.37.54.56.81" fill="none" stroke="#000" stroke-linecap="round" stroke-linejoin="round" stroke-width="3"/><path d="M467.1,649.25h-.01c-3.31-2.37-6.62-4.72-9.94-7.08-2.71-1.93-5.62-3.93-8.95-4.16-3.39-.23-6.6,1.44-9.46,3.26-3.47,2.2-6.98,5.04-7.88,9.03-.93,4.07,1.21,8.36,4.38,11.07s7.22,4.13,11.22,5.32c8.78,2.63,17.83,4.5,26.33,7.87" fill="none" stroke="#000" stroke-linecap="round" stroke-linejoin="round" stroke-width="3"/><path d="M442.38,685.75c2.03,1.65,4.41,2.87,6.31,4.67a14.132,14.132,0,0,1,3.37,14.98,13.472,13.472,0,0,0-8.67-5.87c-2.42-.47-4.92-.26-7.38-.43a24.476,24.476,0,0,1-14.57-6.08c-3.5-3.11-6.05-8.68-3.11-12.32,2.4-2.98,6.97-2.81,10.69-1.93a50.072,50.072,0,0,1,10.49,3.75A11.648,11.648,0,0,0,442.38,685.75Z" fill="none" stroke="#000" stroke-linecap="round" stroke-linejoin="round" stroke-width="3"/><path d="M584.84,735.56a7.007,7.007,0,0,1,4.49-.47,14.669,14.669,0,0,1,4.78,2.49c1.16.79,2.32,1.58,3.48,2.38" fill="none" stroke="#000" stroke-linecap="round" stroke-linejoin="round" stroke-width="3"/><path d="M634.06,693.38c.89,2.35,4.33,3.74,5.98,1.84a5.405,5.405,0,0,0,.96-2.14,38.077,38.077,0,0,0,1.65-10.83c-.06-2.67-1.85-6.16-4.36-5.26a4.223,4.223,0,0,0-2.12,2.29,21.122,21.122,0,0,0-2.25,9.62A7.757,7.757,0,0,0,634.06,693.38Z" fill="none" stroke="#000" stroke-linecap="round" stroke-linejoin="round" stroke-width="3"/><path d="M708.84,637.55A67.853,67.853,0,0,0,703,621.26" fill="none" stroke="#000" stroke-linecap="round" stroke-linejoin="round" stroke-width="3"/><line x1="366.06" y1="545.03" x2="366.05" y2="545.03" fill="none" stroke="#000" stroke-linecap="round" stroke-linejoin="round" stroke-width="3"/><path d="M358.36,550.55a78.48,78.48,0,0,1-26.06,5.48c-2.13.08-4.29.08-6.42.18-1.28.07-2.54.17-3.79.35" fill="none" stroke="#000" stroke-linecap="round" stroke-linejoin="round" stroke-width="3"/><path d="M137.35,481.49a428.652,428.652,0,0,0-3.85,57.46c0,214.31,158.26,391.23,363,417.64" fill="none" stroke="#000" stroke-linecap="round" stroke-linejoin="round" stroke-width="3"/><path d="M137.94,477.32C167.4,274,340.5,117.9,549.65,117.9c229.83,0,416.15,188.51,416.15,421.05a422.069,422.069,0,0,1-154,327" fill="none" stroke="#000" stroke-linecap="round" stroke-linejoin="round" stroke-width="3"/><path d="M755.91,904.71h-.01a410.356,410.356,0,0,1-199.4,55.22" fill="none" stroke="#000" stroke-linecap="round" stroke-linejoin="round" stroke-width="3"/><path d="M496.5,956.59a12.848,12.848,0,0,0,3.05,2.86c4.21,2.85,9.67,2.78,14.75,2.6q15.945-.54,31.9-1.09a67.19,67.19,0,0,0,10.3-1.03" fill="none" stroke="#000" stroke-linecap="round" stroke-linejoin="round" stroke-width="3"/><ellipse cx="543.38" cy="536.5" rx="499.62" ry="505.5" fill="none" stroke="#000" stroke-linecap="round" stroke-linejoin="round" stroke-width="3"/><path d="M137.94,477.32c20.11,13.55,37.61,31.69,60.06,40.1h.01c8.06,6.7,16.28,13.18,24.78,19.28-.6-.1-1.2-.22-1.79-.34-7.02-1.46-13.83-4.3-21-4.47a22.3,22.3,0,0,0-4.73.41,132.056,132.056,0,0,1-16.18-9.79c-7.38-5.41-13.78-12.03-20.12-18.61q-10.8-11.2-21.62-22.41" fill="none" stroke="#000" stroke-linecap="round" stroke-linejoin="round" stroke-width="3"/></svg>